<mxfile host="app.diagrams.net" modified="2022-07-06T06:43:06.574Z" agent="5.0 (Windows NT 10.0; WOW64) AppleWebKit/537.36 (KHTML, like Gecko) Chrome/101.0.0.0 Safari/537.36" etag="zTKj49dQs0DGwyqsNkX7" version="20.0.4" type="github">
  <diagram id="prtHgNgQTEPvFCAcTncT" name="Page-1">
    <mxGraphModel dx="1662" dy="698" grid="1" gridSize="10" guides="1" tooltips="1" connect="1" arrows="1" fold="1" page="1" pageScale="1" pageWidth="827" pageHeight="1169" math="0" shadow="0">
      <root>
        <mxCell id="0" />
        <mxCell id="1" parent="0" />
        <mxCell id="dNxyNK7c78bLwvsdeMH5-11" value="devops平台架构" style="swimlane;html=1;startSize=20;horizontal=1;containerType=tree;glass=0;" parent="1" vertex="1">
          <mxGeometry x="40" y="30" width="710" height="410" as="geometry" />
        </mxCell>
        <mxCell id="jXSdqxecf6vABUP_ffjh-1" value="" style="rounded=0;whiteSpace=wrap;html=1;" vertex="1" parent="dNxyNK7c78bLwvsdeMH5-11">
          <mxGeometry y="200" width="530" height="120" as="geometry" />
        </mxCell>
        <mxCell id="jXSdqxecf6vABUP_ffjh-7" value="基础服务" style="text;html=1;strokeColor=none;fillColor=none;align=center;verticalAlign=middle;whiteSpace=wrap;rounded=0;" vertex="1" parent="dNxyNK7c78bLwvsdeMH5-11">
          <mxGeometry x="10" y="245" width="60" height="30" as="geometry" />
        </mxCell>
        <mxCell id="jXSdqxecf6vABUP_ffjh-8" value="作业平台" style="rounded=0;whiteSpace=wrap;html=1;" vertex="1" parent="dNxyNK7c78bLwvsdeMH5-11">
          <mxGeometry x="298" y="110" width="76" height="40" as="geometry" />
        </mxCell>
        <mxCell id="jXSdqxecf6vABUP_ffjh-9" value="" style="rounded=0;whiteSpace=wrap;html=1;" vertex="1" parent="dNxyNK7c78bLwvsdeMH5-11">
          <mxGeometry y="320" width="710" height="70" as="geometry" />
        </mxCell>
        <mxCell id="jXSdqxecf6vABUP_ffjh-10" value="数据存储" style="text;html=1;strokeColor=none;fillColor=none;align=center;verticalAlign=middle;whiteSpace=wrap;rounded=0;" vertex="1" parent="dNxyNK7c78bLwvsdeMH5-11">
          <mxGeometry x="10" y="340" width="60" height="30" as="geometry" />
        </mxCell>
        <mxCell id="jXSdqxecf6vABUP_ffjh-11" value="SQL" style="shape=cylinder3;whiteSpace=wrap;html=1;boundedLbl=1;backgroundOutline=1;size=15;" vertex="1" parent="dNxyNK7c78bLwvsdeMH5-11">
          <mxGeometry x="160" y="330" width="40" height="50" as="geometry" />
        </mxCell>
        <mxCell id="jXSdqxecf6vABUP_ffjh-12" value="redis" style="whiteSpace=wrap;html=1;shape=mxgraph.basic.isocube;isoAngle=15;" vertex="1" parent="dNxyNK7c78bLwvsdeMH5-11">
          <mxGeometry x="270" y="330" width="40" height="50" as="geometry" />
        </mxCell>
        <mxCell id="jXSdqxecf6vABUP_ffjh-18" value="es" style="rounded=0;whiteSpace=wrap;html=1;" vertex="1" parent="dNxyNK7c78bLwvsdeMH5-11">
          <mxGeometry x="390" y="340" width="60" height="30" as="geometry" />
        </mxCell>
        <mxCell id="jXSdqxecf6vABUP_ffjh-19" value="InfluxDB" style="rounded=0;whiteSpace=wrap;html=1;" vertex="1" parent="dNxyNK7c78bLwvsdeMH5-11">
          <mxGeometry x="540" y="340" width="60" height="30" as="geometry" />
        </mxCell>
        <mxCell id="jXSdqxecf6vABUP_ffjh-23" value="ELK" style="rounded=0;whiteSpace=wrap;html=1;" vertex="1" parent="dNxyNK7c78bLwvsdeMH5-11">
          <mxGeometry x="184" y="265" width="76" height="40" as="geometry" />
        </mxCell>
        <mxCell id="jXSdqxecf6vABUP_ffjh-38" value="promethus" style="rounded=0;whiteSpace=wrap;html=1;" vertex="1" parent="dNxyNK7c78bLwvsdeMH5-11">
          <mxGeometry x="94" y="265" width="76" height="40" as="geometry" />
        </mxCell>
        <mxCell id="jXSdqxecf6vABUP_ffjh-39" value="权限管理" style="rounded=0;whiteSpace=wrap;html=1;" vertex="1" parent="dNxyNK7c78bLwvsdeMH5-11">
          <mxGeometry x="274" y="265" width="76" height="40" as="geometry" />
        </mxCell>
        <mxCell id="jXSdqxecf6vABUP_ffjh-42" value="" style="rounded=0;whiteSpace=wrap;html=1;" vertex="1" parent="dNxyNK7c78bLwvsdeMH5-11">
          <mxGeometry y="80" width="530" height="120" as="geometry" />
        </mxCell>
        <mxCell id="jXSdqxecf6vABUP_ffjh-45" value="应用服务" style="text;html=1;strokeColor=none;fillColor=none;align=center;verticalAlign=middle;whiteSpace=wrap;rounded=0;" vertex="1" parent="dNxyNK7c78bLwvsdeMH5-11">
          <mxGeometry x="10" y="125" width="60" height="30" as="geometry" />
        </mxCell>
        <mxCell id="jXSdqxecf6vABUP_ffjh-46" value="" style="rounded=0;whiteSpace=wrap;html=1;" vertex="1" parent="dNxyNK7c78bLwvsdeMH5-11">
          <mxGeometry x="540" y="80" width="80" height="240" as="geometry" />
        </mxCell>
        <mxCell id="jXSdqxecf6vABUP_ffjh-47" value="作业平台" style="rounded=0;whiteSpace=wrap;html=1;" vertex="1" parent="dNxyNK7c78bLwvsdeMH5-11">
          <mxGeometry x="274" y="125" width="76" height="40" as="geometry" />
        </mxCell>
        <mxCell id="jXSdqxecf6vABUP_ffjh-48" value="ansible" style="rounded=0;whiteSpace=wrap;html=1;" vertex="1" parent="dNxyNK7c78bLwvsdeMH5-11">
          <mxGeometry x="94" y="210" width="76" height="40" as="geometry" />
        </mxCell>
        <mxCell id="jXSdqxecf6vABUP_ffjh-49" value="jenkins" style="rounded=0;whiteSpace=wrap;html=1;" vertex="1" parent="dNxyNK7c78bLwvsdeMH5-11">
          <mxGeometry x="184" y="210" width="76" height="40" as="geometry" />
        </mxCell>
        <mxCell id="jXSdqxecf6vABUP_ffjh-50" value="配置平台" style="rounded=0;whiteSpace=wrap;html=1;" vertex="1" parent="dNxyNK7c78bLwvsdeMH5-11">
          <mxGeometry x="184" y="125" width="76" height="40" as="geometry" />
        </mxCell>
        <mxCell id="jXSdqxecf6vABUP_ffjh-52" value="CICD发布" style="rounded=0;whiteSpace=wrap;html=1;" vertex="1" parent="dNxyNK7c78bLwvsdeMH5-11">
          <mxGeometry x="94" y="125" width="76" height="40" as="geometry" />
        </mxCell>
        <mxCell id="jXSdqxecf6vABUP_ffjh-54" value="gitlab" style="rounded=0;whiteSpace=wrap;html=1;" vertex="1" parent="dNxyNK7c78bLwvsdeMH5-11">
          <mxGeometry x="274" y="210" width="76" height="40" as="geometry" />
        </mxCell>
        <mxCell id="jXSdqxecf6vABUP_ffjh-55" value="nexus" style="rounded=0;whiteSpace=wrap;html=1;" vertex="1" parent="dNxyNK7c78bLwvsdeMH5-11">
          <mxGeometry x="360" y="210" width="76" height="40" as="geometry" />
        </mxCell>
        <mxCell id="jXSdqxecf6vABUP_ffjh-56" value="容器管理" style="rounded=0;whiteSpace=wrap;html=1;" vertex="1" parent="dNxyNK7c78bLwvsdeMH5-11">
          <mxGeometry x="360" y="125" width="80" height="40" as="geometry" />
        </mxCell>
        <mxCell id="jXSdqxecf6vABUP_ffjh-57" value="服务治理" style="text;html=1;strokeColor=none;fillColor=none;align=center;verticalAlign=middle;whiteSpace=wrap;rounded=0;" vertex="1" parent="dNxyNK7c78bLwvsdeMH5-11">
          <mxGeometry x="550" y="90" width="60" height="30" as="geometry" />
        </mxCell>
        <mxCell id="jXSdqxecf6vABUP_ffjh-58" value="负载均衡" style="rounded=0;whiteSpace=wrap;html=1;" vertex="1" parent="dNxyNK7c78bLwvsdeMH5-11">
          <mxGeometry x="550" y="130" width="60" height="25" as="geometry" />
        </mxCell>
        <mxCell id="jXSdqxecf6vABUP_ffjh-61" style="edgeStyle=orthogonalEdgeStyle;rounded=0;orthogonalLoop=1;jettySize=auto;html=1;exitX=0.75;exitY=1;exitDx=0;exitDy=0;entryX=0.667;entryY=-0.4;entryDx=0;entryDy=0;entryPerimeter=0;" edge="1" parent="dNxyNK7c78bLwvsdeMH5-11" source="jXSdqxecf6vABUP_ffjh-59" target="jXSdqxecf6vABUP_ffjh-60">
          <mxGeometry relative="1" as="geometry" />
        </mxCell>
        <mxCell id="jXSdqxecf6vABUP_ffjh-59" value="服务注册" style="rounded=0;whiteSpace=wrap;html=1;" vertex="1" parent="dNxyNK7c78bLwvsdeMH5-11">
          <mxGeometry x="550" y="165" width="60" height="25" as="geometry" />
        </mxCell>
        <mxCell id="jXSdqxecf6vABUP_ffjh-60" value="服务发现" style="rounded=0;whiteSpace=wrap;html=1;" vertex="1" parent="dNxyNK7c78bLwvsdeMH5-11">
          <mxGeometry x="550" y="200" width="60" height="25" as="geometry" />
        </mxCell>
        <mxCell id="jXSdqxecf6vABUP_ffjh-62" value="路由" style="rounded=0;whiteSpace=wrap;html=1;" vertex="1" parent="dNxyNK7c78bLwvsdeMH5-11">
          <mxGeometry x="550" y="240" width="60" height="25" as="geometry" />
        </mxCell>
        <mxCell id="jXSdqxecf6vABUP_ffjh-63" value="" style="rounded=0;whiteSpace=wrap;html=1;" vertex="1" parent="dNxyNK7c78bLwvsdeMH5-11">
          <mxGeometry x="630" y="80" width="80" height="240" as="geometry" />
        </mxCell>
        <mxCell id="jXSdqxecf6vABUP_ffjh-64" value="运维监控" style="text;html=1;strokeColor=none;fillColor=none;align=center;verticalAlign=middle;whiteSpace=wrap;rounded=0;" vertex="1" parent="dNxyNK7c78bLwvsdeMH5-11">
          <mxGeometry x="640" y="90" width="60" height="30" as="geometry" />
        </mxCell>
        <mxCell id="jXSdqxecf6vABUP_ffjh-65" value="服务监控" style="rounded=0;whiteSpace=wrap;html=1;" vertex="1" parent="dNxyNK7c78bLwvsdeMH5-11">
          <mxGeometry x="640" y="130" width="60" height="25" as="geometry" />
        </mxCell>
        <mxCell id="jXSdqxecf6vABUP_ffjh-66" value="容器监控" style="rounded=0;whiteSpace=wrap;html=1;" vertex="1" parent="dNxyNK7c78bLwvsdeMH5-11">
          <mxGeometry x="640" y="165" width="60" height="25" as="geometry" />
        </mxCell>
        <mxCell id="jXSdqxecf6vABUP_ffjh-67" value="主机监控" style="rounded=0;whiteSpace=wrap;html=1;" vertex="1" parent="dNxyNK7c78bLwvsdeMH5-11">
          <mxGeometry x="640" y="200" width="60" height="25" as="geometry" />
        </mxCell>
        <mxCell id="jXSdqxecf6vABUP_ffjh-68" value="告警" style="rounded=0;whiteSpace=wrap;html=1;" vertex="1" parent="dNxyNK7c78bLwvsdeMH5-11">
          <mxGeometry x="640" y="240" width="60" height="25" as="geometry" />
        </mxCell>
        <mxCell id="jXSdqxecf6vABUP_ffjh-69" value="统一API网关" style="rounded=0;whiteSpace=wrap;html=1;" vertex="1" parent="dNxyNK7c78bLwvsdeMH5-11">
          <mxGeometry y="50" width="710" height="30" as="geometry" />
        </mxCell>
        <mxCell id="jXSdqxecf6vABUP_ffjh-70" value="API接口层" style="text;html=1;strokeColor=none;fillColor=none;align=center;verticalAlign=middle;whiteSpace=wrap;rounded=0;" vertex="1" parent="dNxyNK7c78bLwvsdeMH5-11">
          <mxGeometry x="10" y="50" width="60" height="30" as="geometry" />
        </mxCell>
        <mxCell id="jXSdqxecf6vABUP_ffjh-2" value="" style="rounded=0;whiteSpace=wrap;html=1;" vertex="1" parent="1">
          <mxGeometry x="40" y="420" width="710" height="130" as="geometry" />
        </mxCell>
        <mxCell id="jXSdqxecf6vABUP_ffjh-3" value="私有云&lt;br&gt;VMware" style="rounded=0;whiteSpace=wrap;html=1;" vertex="1" parent="1">
          <mxGeometry x="170" y="440" width="140" height="70" as="geometry" />
        </mxCell>
        <mxCell id="jXSdqxecf6vABUP_ffjh-4" value="公有云&lt;br&gt;AWS" style="rounded=0;whiteSpace=wrap;html=1;" vertex="1" parent="1">
          <mxGeometry x="360" y="440" width="140" height="70" as="geometry" />
        </mxCell>
        <mxCell id="jXSdqxecf6vABUP_ffjh-5" value="容器云&lt;br&gt;k8s" style="rounded=0;whiteSpace=wrap;html=1;" vertex="1" parent="1">
          <mxGeometry x="560" y="440" width="140" height="70" as="geometry" />
        </mxCell>
        <mxCell id="jXSdqxecf6vABUP_ffjh-6" value="基础设施层" style="text;html=1;strokeColor=none;fillColor=none;align=center;verticalAlign=middle;whiteSpace=wrap;rounded=0;" vertex="1" parent="1">
          <mxGeometry x="40" y="460" width="80" height="30" as="geometry" />
        </mxCell>
      </root>
    </mxGraphModel>
  </diagram>
</mxfile>
